<svg width="1440" height="900" viewBox="0 0 1440 900" fill="none" xmlns="http://www.w3.org/2000/svg">
<path d="M140.187 900V0M284.67 900V0M429.153 900V0M573.635 900V0M718.118 900V0M862.601 900V0M1007.08 900V0M1151.57 900V0M1296.05 900V0" stroke="#0000FF" stroke-width="0.953" stroke-miterlimit="10"/>
<path d="M1440 86.353H0M1440 230.612H0M1440 374.871H0M1440 519.129H0M1440 663.388H0M1440 807.647H0" stroke="#0000FF" stroke-miterlimit="10"/>
<path d="M313.503 574.419V564.466H316.757C317.837 564.466 318.648 564.689 319.191 565.136C319.738 565.582 320.011 566.243 320.011 567.118C320.011 567.583 319.879 567.996 319.615 568.356C319.35 568.711 318.99 568.987 318.534 569.183C319.072 569.333 319.496 569.62 319.806 570.044C320.12 570.463 320.278 570.965 320.278 571.548C320.278 572.441 319.988 573.143 319.409 573.653C318.831 574.164 318.013 574.419 316.955 574.419H313.503ZM314.816 569.764V573.346H316.983C317.593 573.346 318.074 573.189 318.425 572.874C318.781 572.555 318.958 572.118 318.958 571.562C318.958 570.363 318.307 569.764 317.003 569.764H314.816ZM314.816 568.711H316.798C317.372 568.711 317.83 568.567 318.172 568.28C318.518 567.993 318.692 567.604 318.692 567.111C318.692 566.565 318.532 566.168 318.213 565.922C317.894 565.671 317.409 565.546 316.757 565.546H314.816V568.711Z" fill="#0000FF"/>
<path d="M326.594 574.419C326.521 574.273 326.462 574.013 326.416 573.64C325.828 574.25 325.127 574.556 324.311 574.556C323.582 574.556 322.982 574.351 322.513 573.94C322.048 573.526 321.816 573.002 321.816 572.368C321.816 571.598 322.107 571.001 322.691 570.577C323.279 570.149 324.103 569.935 325.165 569.935H326.396V569.354C326.396 568.912 326.264 568.561 325.999 568.301C325.735 568.037 325.345 567.904 324.83 567.904C324.379 567.904 324.001 568.018 323.696 568.246C323.39 568.474 323.238 568.75 323.238 569.073H321.966C321.966 568.704 322.096 568.349 322.356 568.007C322.62 567.661 322.976 567.387 323.422 567.187C323.873 566.986 324.368 566.886 324.906 566.886C325.758 566.886 326.425 567.1 326.908 567.528C327.392 567.952 327.642 568.538 327.66 569.285V572.69C327.66 573.369 327.747 573.909 327.92 574.31V574.419H326.594ZM324.495 573.455C324.892 573.455 325.268 573.353 325.623 573.148C325.979 572.942 326.236 572.676 326.396 572.348V570.83H325.405C323.855 570.83 323.08 571.284 323.08 572.19C323.08 572.587 323.212 572.897 323.477 573.12C323.741 573.343 324.081 573.455 324.495 573.455Z" fill="#0000FF"/>
<path d="M333.218 568.157C333.027 568.125 332.819 568.109 332.596 568.109C331.767 568.109 331.204 568.463 330.907 569.169V574.419H329.643V567.023H330.873L330.894 567.877C331.309 567.216 331.896 566.886 332.657 566.886C332.904 566.886 333.09 566.918 333.218 566.982V568.157Z" fill="#0000FF"/>
<path d="M337.962 568.157C337.771 568.125 337.563 568.109 337.34 568.109C336.511 568.109 335.948 568.463 335.652 569.169V574.419H334.387V567.023H335.617L335.638 567.877C336.053 567.216 336.641 566.886 337.402 566.886C337.648 566.886 337.835 566.918 337.962 566.982V568.157Z" fill="#0000FF"/>
<path d="M340.505 574.419H339.24V567.023H340.505V574.419ZM339.138 565.061C339.138 564.856 339.199 564.682 339.323 564.541C339.45 564.4 339.637 564.329 339.883 564.329C340.129 564.329 340.316 564.4 340.444 564.541C340.571 564.682 340.635 564.856 340.635 565.061C340.635 565.266 340.571 565.437 340.444 565.573C340.316 565.71 340.129 565.778 339.883 565.778C339.637 565.778 339.45 565.71 339.323 565.573C339.199 565.437 339.138 565.266 339.138 565.061Z" fill="#0000FF"/>
<path d="M342.2 570.652C342.2 569.928 342.342 569.276 342.624 568.697C342.911 568.119 343.308 567.672 343.814 567.357C344.324 567.043 344.905 566.886 345.557 566.886C346.564 566.886 347.378 567.234 347.997 567.932C348.622 568.629 348.934 569.556 348.934 570.714V570.803C348.934 571.523 348.795 572.17 348.517 572.744C348.243 573.314 347.849 573.758 347.334 574.077C346.824 574.396 346.236 574.556 345.571 574.556C344.568 574.556 343.754 574.207 343.13 573.51C342.51 572.813 342.2 571.89 342.2 570.741V570.652ZM343.472 570.803C343.472 571.623 343.661 572.282 344.039 572.778C344.422 573.275 344.933 573.523 345.571 573.523C346.213 573.523 346.724 573.273 347.102 572.772C347.48 572.266 347.669 571.559 347.669 570.652C347.669 569.841 347.476 569.185 347.088 568.684C346.705 568.178 346.195 567.925 345.557 567.925C344.933 567.925 344.429 568.173 344.046 568.67C343.663 569.167 343.472 569.878 343.472 570.803Z" fill="#0000FF"/>
<path d="M357.123 569.982C355.998 569.659 355.177 569.262 354.662 568.793C354.152 568.319 353.897 567.736 353.897 567.043C353.897 566.259 354.209 565.612 354.833 565.102C355.462 564.587 356.278 564.329 357.281 564.329C357.964 564.329 358.573 564.461 359.106 564.726C359.643 564.99 360.058 565.355 360.35 565.819C360.646 566.284 360.794 566.792 360.794 567.344H359.475C359.475 566.742 359.283 566.271 358.901 565.929C358.518 565.582 357.978 565.409 357.281 565.409C356.633 565.409 356.128 565.553 355.763 565.84C355.403 566.122 355.223 566.517 355.223 567.023C355.223 567.428 355.394 567.772 355.736 568.055C356.082 568.333 356.668 568.588 357.492 568.82C358.322 569.053 358.969 569.31 359.434 569.593C359.903 569.871 360.25 570.197 360.473 570.57C360.701 570.944 360.815 571.384 360.815 571.89C360.815 572.696 360.5 573.343 359.871 573.831C359.242 574.314 358.402 574.556 357.349 574.556C356.665 574.556 356.027 574.426 355.435 574.166C354.842 573.902 354.384 573.542 354.061 573.086C353.742 572.63 353.582 572.113 353.582 571.534H354.902C354.902 572.136 355.123 572.612 355.565 572.963C356.011 573.309 356.606 573.482 357.349 573.482C358.042 573.482 358.573 573.341 358.942 573.059C359.311 572.776 359.495 572.391 359.495 571.903C359.495 571.416 359.324 571.04 358.983 570.775C358.641 570.507 358.021 570.242 357.123 569.982Z" fill="#0000FF"/>
<path d="M366.871 574.419C366.798 574.273 366.739 574.013 366.694 573.64C366.106 574.25 365.404 574.556 364.588 574.556C363.859 574.556 363.26 574.351 362.79 573.94C362.325 573.526 362.093 573.002 362.093 572.368C362.093 571.598 362.385 571.001 362.968 570.577C363.556 570.149 364.381 569.935 365.443 569.935H366.673V569.354C366.673 568.912 366.541 568.561 366.277 568.301C366.012 568.037 365.623 567.904 365.108 567.904C364.656 567.904 364.278 568.018 363.973 568.246C363.668 568.474 363.515 568.75 363.515 569.073H362.243C362.243 568.704 362.373 568.349 362.633 568.007C362.897 567.661 363.253 567.387 363.699 567.187C364.151 566.986 364.645 566.886 365.183 566.886C366.035 566.886 366.703 567.1 367.186 567.528C367.669 567.952 367.92 568.538 367.938 569.285V572.69C367.938 573.369 368.024 573.909 368.198 574.31V574.419H366.871ZM364.773 573.455C365.169 573.455 365.545 573.353 365.901 573.148C366.256 572.942 366.514 572.676 366.673 572.348V570.83H365.682C364.132 570.83 363.358 571.284 363.358 572.19C363.358 572.587 363.49 572.897 363.754 573.12C364.018 573.343 364.358 573.455 364.773 573.455Z" fill="#0000FF"/>
<path d="M371.116 567.023L371.157 567.952C371.723 567.241 372.461 566.886 373.372 566.886C374.935 566.886 375.724 567.768 375.738 569.531V574.419H374.473V569.524C374.468 568.991 374.345 568.597 374.104 568.342C373.867 568.087 373.495 567.959 372.99 567.959C372.579 567.959 372.219 568.068 371.909 568.287C371.6 568.506 371.358 568.793 371.185 569.148V574.419H369.92V567.023H371.116Z" fill="#0000FF"/>
<path d="M379.361 565.232V567.023H380.741V568H379.361V572.587C379.361 572.883 379.422 573.107 379.545 573.257C379.668 573.403 379.878 573.476 380.174 573.476C380.32 573.476 380.52 573.448 380.776 573.394V574.419C380.443 574.51 380.119 574.556 379.805 574.556C379.24 574.556 378.814 574.385 378.527 574.043C378.24 573.701 378.096 573.216 378.096 572.587V568H376.749V567.023H378.096V565.232H379.361Z" fill="#0000FF"/>
<path d="M386.791 574.419C386.718 574.273 386.659 574.013 386.614 573.64C386.026 574.25 385.324 574.556 384.508 574.556C383.779 574.556 383.18 574.351 382.71 573.94C382.245 573.526 382.013 573.002 382.013 572.368C382.013 571.598 382.305 571.001 382.888 570.577C383.476 570.149 384.301 569.935 385.363 569.935H386.593V569.354C386.593 568.912 386.461 568.561 386.197 568.301C385.932 568.037 385.543 567.904 385.028 567.904C384.576 567.904 384.198 568.018 383.893 568.246C383.587 568.474 383.435 568.75 383.435 569.073H382.163C382.163 568.704 382.293 568.349 382.553 568.007C382.817 567.661 383.173 567.387 383.619 567.187C384.071 566.986 384.565 566.886 385.103 566.886C385.955 566.886 386.623 567.1 387.106 567.528C387.589 567.952 387.839 568.538 387.858 569.285V572.69C387.858 573.369 387.944 573.909 388.117 574.31V574.419H386.791ZM384.693 573.455C385.089 573.455 385.465 573.353 385.821 573.148C386.176 572.942 386.434 572.676 386.593 572.348V570.83H385.602C384.052 570.83 383.278 571.284 383.278 572.19C383.278 572.587 383.41 572.897 383.674 573.12C383.938 573.343 384.278 573.455 384.693 573.455Z" fill="#0000FF"/>
<path d="M390.462 574.419V568H389.293V567.023H390.462V566.264C390.462 565.471 390.674 564.858 391.098 564.425C391.522 563.992 392.121 563.775 392.896 563.775C393.187 563.775 393.477 563.814 393.764 563.892L393.696 564.917C393.481 564.876 393.253 564.856 393.012 564.856C392.602 564.856 392.285 564.976 392.062 565.218C391.838 565.455 391.727 565.797 391.727 566.243V567.023H393.306V568H391.727V574.419H390.462Z" fill="#0000FF"/>
<path d="M397.613 574.556C396.61 574.556 395.794 574.228 395.165 573.571C394.536 572.911 394.222 572.029 394.222 570.926V570.693C394.222 569.96 394.361 569.306 394.639 568.732C394.921 568.153 395.313 567.702 395.815 567.378C396.321 567.05 396.867 566.886 397.455 566.886C398.417 566.886 399.164 567.203 399.698 567.836C400.231 568.469 400.497 569.376 400.497 570.557V571.083H395.487C395.505 571.812 395.717 572.402 396.122 572.854C396.532 573.3 397.052 573.523 397.681 573.523C398.128 573.523 398.506 573.432 398.816 573.25C399.126 573.068 399.397 572.826 399.629 572.525L400.402 573.127C399.782 574.079 398.852 574.556 397.613 574.556ZM397.455 567.925C396.945 567.925 396.517 568.112 396.17 568.485C395.824 568.855 395.61 569.374 395.528 570.044H399.233V569.948C399.196 569.306 399.023 568.809 398.713 568.458C398.403 568.103 397.984 567.925 397.455 567.925ZM398.071 563.919H399.602L397.77 565.929H396.751L398.071 563.919Z" fill="#0000FF"/>
<path d="M741.197 173.303V177.199H739.884V167.246H743.555C744.644 167.246 745.497 167.524 746.112 168.08C746.732 168.636 747.042 169.372 747.042 170.288C747.042 171.254 746.738 171.999 746.132 172.523C745.531 173.043 744.667 173.303 743.542 173.303H741.197ZM741.197 172.229H743.555C744.257 172.229 744.795 172.065 745.168 171.737C745.542 171.404 745.729 170.926 745.729 170.302C745.729 169.709 745.542 169.235 745.168 168.88C744.795 168.524 744.282 168.34 743.63 168.326H741.197V172.229Z" fill="#0000FF"/>
<path d="M749.892 177.199H748.627V166.699H749.892V177.199Z" fill="#0000FF"/>
<path d="M756.489 177.199C756.416 177.053 756.357 176.793 756.311 176.42C755.723 177.03 755.021 177.336 754.206 177.336C753.476 177.336 752.877 177.131 752.408 176.72C751.943 176.306 751.71 175.782 751.71 175.148C751.71 174.378 752.002 173.781 752.585 173.357C753.173 172.929 753.998 172.715 755.06 172.715H756.291V172.134C756.291 171.692 756.158 171.341 755.894 171.081C755.63 170.817 755.24 170.684 754.725 170.684C754.274 170.684 753.896 170.798 753.59 171.026C753.285 171.254 753.132 171.53 753.132 171.853H751.861C751.861 171.484 751.991 171.129 752.25 170.787C752.515 170.441 752.87 170.167 753.317 169.967C753.768 169.766 754.263 169.666 754.8 169.666C755.653 169.666 756.32 169.88 756.803 170.308C757.286 170.732 757.537 171.318 757.555 172.065V175.47C757.555 176.149 757.642 176.689 757.815 177.09V177.199H756.489ZM754.39 176.235C754.787 176.235 755.163 176.133 755.518 175.928C755.874 175.722 756.131 175.456 756.291 175.128V173.61H755.299C753.75 173.61 752.975 174.064 752.975 174.97C752.975 175.367 753.107 175.677 753.372 175.9C753.636 176.123 753.975 176.235 754.39 176.235Z" fill="#0000FF"/>
<path d="M760.727 176.167H765.054V177.199H759.182V176.269L763.263 170.848H759.244V169.803H764.849V170.698L760.727 176.167Z" fill="#0000FF"/>
<path d="M771.049 177.199C770.976 177.053 770.917 176.793 770.872 176.42C770.284 177.03 769.582 177.336 768.766 177.336C768.037 177.336 767.438 177.131 766.968 176.72C766.503 176.306 766.271 175.782 766.271 175.148C766.271 174.378 766.563 173.781 767.146 173.357C767.734 172.929 768.559 172.715 769.621 172.715H770.851V172.134C770.851 171.692 770.719 171.341 770.455 171.081C770.19 170.817 769.801 170.684 769.286 170.684C768.834 170.684 768.456 170.798 768.151 171.026C767.846 171.254 767.693 171.53 767.693 171.853H766.421C766.421 171.484 766.551 171.129 766.811 170.787C767.075 170.441 767.431 170.167 767.877 169.967C768.329 169.766 768.823 169.666 769.361 169.666C770.213 169.666 770.881 169.88 771.364 170.308C771.847 170.732 772.097 171.318 772.116 172.065V175.47C772.116 176.149 772.202 176.689 772.375 177.09V177.199H771.049ZM768.951 176.235C769.347 176.235 769.723 176.133 770.079 175.928C770.434 175.722 770.692 175.456 770.851 175.128V173.61H769.86C768.31 173.61 767.536 174.064 767.536 174.97C767.536 175.367 767.668 175.677 767.932 175.9C768.196 176.123 768.536 176.235 768.951 176.235Z" fill="#0000FF"/>
<path d="M777.263 173.439C777.263 172.304 777.532 171.393 778.07 170.705C778.608 170.012 779.312 169.666 780.182 169.666C781.048 169.666 781.734 169.962 782.24 170.554V166.699H783.504V177.199H782.342L782.281 176.406C781.775 177.026 781.071 177.336 780.168 177.336C779.312 177.336 778.612 176.985 778.07 176.283C777.532 175.581 777.263 174.665 777.263 173.535V173.439ZM778.528 173.583C778.528 174.421 778.701 175.078 779.047 175.552C779.394 176.026 779.872 176.262 780.483 176.262C781.285 176.262 781.871 175.902 782.24 175.182V171.785C781.861 171.088 781.28 170.739 780.497 170.739C779.877 170.739 779.394 170.978 779.047 171.457C778.701 171.935 778.528 172.644 778.528 173.583Z" fill="#0000FF"/>
<path d="M788.542 177.336C787.54 177.336 786.724 177.008 786.095 176.351C785.466 175.691 785.152 174.809 785.152 173.706V173.473C785.152 172.74 785.291 172.086 785.569 171.512C785.851 170.933 786.243 170.482 786.745 170.158C787.25 169.83 787.797 169.666 788.385 169.666C789.347 169.666 790.094 169.983 790.627 170.616C791.161 171.249 791.427 172.156 791.427 173.337V173.863H786.417C786.435 174.592 786.647 175.182 787.052 175.634C787.462 176.08 787.982 176.303 788.611 176.303C789.057 176.303 789.436 176.212 789.746 176.03C790.056 175.848 790.327 175.606 790.559 175.305L791.332 175.907C790.712 176.859 789.782 177.336 788.542 177.336ZM788.385 170.705C787.875 170.705 787.446 170.892 787.1 171.265C786.754 171.635 786.54 172.154 786.458 172.824H790.163V172.728C790.126 172.086 789.953 171.589 789.643 171.238C789.333 170.883 788.914 170.705 788.385 170.705Z" fill="#0000FF"/>
<path d="M796.568 177.199V167.246H799.822C800.902 167.246 801.713 167.469 802.255 167.916C802.802 168.362 803.076 169.023 803.076 169.898C803.076 170.363 802.944 170.776 802.679 171.136C802.415 171.491 802.055 171.767 801.599 171.963C802.137 172.113 802.561 172.4 802.871 172.824C803.185 173.243 803.342 173.745 803.342 174.328C803.342 175.221 803.053 175.923 802.474 176.433C801.895 176.944 801.077 177.199 800.02 177.199H796.568ZM797.88 172.544V176.126H800.047C800.658 176.126 801.139 175.969 801.49 175.654C801.845 175.335 802.023 174.898 802.023 174.342C802.023 173.143 801.371 172.544 800.068 172.544H797.88ZM797.88 171.491H799.863C800.437 171.491 800.895 171.347 801.237 171.06C801.583 170.773 801.756 170.384 801.756 169.891C801.756 169.345 801.597 168.948 801.278 168.702C800.959 168.451 800.473 168.326 799.822 168.326H797.88V171.491Z" fill="#0000FF"/>
<path d="M804.757 173.432C804.757 172.708 804.899 172.056 805.181 171.477C805.468 170.899 805.865 170.452 806.371 170.137C806.881 169.823 807.462 169.666 808.114 169.666C809.121 169.666 809.934 170.014 810.554 170.712C811.179 171.409 811.491 172.336 811.491 173.494V173.583C811.491 174.303 811.352 174.95 811.074 175.524C810.8 176.094 810.406 176.538 809.891 176.857C809.381 177.176 808.793 177.336 808.127 177.336C807.125 177.336 806.311 176.987 805.687 176.29C805.067 175.593 804.757 174.67 804.757 173.521V173.432ZM806.029 173.583C806.029 174.403 806.218 175.062 806.596 175.558C806.979 176.055 807.489 176.303 808.127 176.303C808.77 176.303 809.28 176.053 809.659 175.552C810.037 175.046 810.226 174.339 810.226 173.432C810.226 172.621 810.032 171.965 809.645 171.464C809.262 170.958 808.752 170.705 808.114 170.705C807.489 170.705 806.986 170.953 806.603 171.45C806.22 171.947 806.029 172.658 806.029 173.583Z" fill="#0000FF"/>
<path d="M814.451 177.199H813.186V166.699H814.451V177.199Z" fill="#0000FF"/>
<path d="M817.855 177.199H816.583V169.803H817.855V177.199ZM817.869 166.706H819.4L817.568 168.716H816.549L817.869 166.706Z" fill="#0000FF"/>
<path d="M822.38 175.483L824.212 169.803H825.504L822.852 177.199H821.888L819.208 169.803H820.5L822.38 175.483Z" fill="#0000FF"/>
<path d="M831.178 177.199C831.105 177.053 831.046 176.793 831 176.42C830.413 177.03 829.711 177.336 828.895 177.336C828.166 177.336 827.567 177.131 827.097 176.72C826.632 176.306 826.4 175.782 826.4 175.148C826.4 174.378 826.692 173.781 827.275 173.357C827.863 172.929 828.688 172.715 829.75 172.715H830.98V172.134C830.98 171.692 830.848 171.341 830.583 171.081C830.319 170.817 829.93 170.684 829.415 170.684C828.963 170.684 828.585 170.798 828.28 171.026C827.974 171.254 827.822 171.53 827.822 171.853H826.55C826.55 171.484 826.68 171.129 826.94 170.787C827.204 170.441 827.56 170.167 828.006 169.967C828.458 169.766 828.952 169.666 829.49 169.666C830.342 169.666 831.01 169.88 831.493 170.308C831.976 170.732 832.226 171.318 832.245 172.065V175.47C832.245 176.149 832.331 176.689 832.504 177.09V177.199H831.178ZM829.08 176.235C829.476 176.235 829.852 176.133 830.208 175.928C830.563 175.722 830.82 175.456 830.98 175.128V173.61H829.989C828.439 173.61 827.665 174.064 827.665 174.97C827.665 175.367 827.797 175.677 828.061 175.9C828.325 176.123 828.665 176.235 829.08 176.235Z" fill="#0000FF"/>
<path d="M837.802 170.937C837.611 170.905 837.403 170.889 837.18 170.889C836.351 170.889 835.788 171.243 835.492 171.949V177.199H834.227V169.803H835.458L835.478 170.657C835.893 169.996 836.481 169.666 837.242 169.666C837.488 169.666 837.675 169.698 837.802 169.762V170.937Z" fill="#0000FF"/>
<path d="M561.534 758.747C562.586 758.87 563.4 759.26 563.974 759.916C564.544 760.568 564.829 761.436 564.829 762.521C564.829 763.697 564.407 764.64 563.564 765.351C562.721 766.057 561.593 766.411 560.18 766.411H559.223C558.298 766.411 557.485 766.246 556.783 765.918C556.081 765.586 555.543 765.116 555.169 764.51C554.791 763.904 554.602 763.202 554.602 762.405C554.602 761.347 554.898 760.5 555.491 759.862C556.079 759.224 556.894 758.852 557.938 758.747V760.067C557.145 760.181 556.571 760.429 556.215 760.812C555.86 761.19 555.682 761.721 555.682 762.405C555.682 763.243 555.992 763.902 556.612 764.38C557.232 764.854 558.113 765.091 559.257 765.091H560.221C561.301 765.091 562.16 764.866 562.798 764.414C563.436 763.963 563.755 763.332 563.755 762.521C563.755 761.792 563.591 761.233 563.263 760.846C562.931 760.454 562.354 760.194 561.534 760.067V758.747Z" fill="#0000FF"/>
<path d="M564.692 752.581C564.546 752.654 564.286 752.714 563.913 752.759C564.523 753.347 564.829 754.049 564.829 754.865C564.829 755.594 564.624 756.193 564.213 756.662C563.799 757.127 563.275 757.36 562.641 757.36C561.871 757.36 561.274 757.068 560.85 756.485C560.422 755.897 560.208 755.072 560.208 754.01V752.78H559.626C559.184 752.78 558.833 752.912 558.574 753.176C558.309 753.44 558.177 753.83 558.177 754.345C558.177 754.796 558.291 755.175 558.519 755.48C558.747 755.785 559.023 755.938 559.346 755.938V757.209C558.977 757.209 558.622 757.079 558.28 756.82C557.933 756.555 557.66 756.2 557.459 755.753C557.259 755.302 557.159 754.808 557.159 754.27C557.159 753.418 557.373 752.75 557.801 752.267C558.225 751.784 558.811 751.533 559.558 751.515H562.962C563.641 751.515 564.181 751.428 564.583 751.255H564.692V752.581ZM563.728 754.68C563.728 754.284 563.625 753.908 563.42 753.552C563.215 753.197 562.949 752.939 562.621 752.78H561.103V753.771C561.103 755.32 561.556 756.095 562.463 756.095C562.86 756.095 563.17 755.963 563.393 755.699C563.616 755.434 563.728 755.095 563.728 754.68Z" fill="#0000FF"/>
<path d="M564.692 748.159V749.423H554.192V748.159H564.692Z" fill="#0000FF"/>
<path d="M564.692 744.754V746.019H554.192V744.754H564.692Z" fill="#0000FF"/>
<path d="M564.829 739.655C564.829 740.657 564.5 741.473 563.844 742.102C563.183 742.731 562.302 743.045 561.199 743.045H560.966C560.233 743.045 559.579 742.906 559.004 742.628C558.426 742.346 557.974 741.954 557.651 741.453C557.323 740.947 557.159 740.4 557.159 739.812C557.159 738.85 557.475 738.103 558.109 737.57C558.742 737.036 559.649 736.77 560.83 736.77H561.356V741.781C562.085 741.762 562.675 741.55 563.126 741.145C563.573 740.735 563.796 740.215 563.796 739.586C563.796 739.14 563.705 738.761 563.523 738.452C563.341 738.142 563.099 737.87 562.798 737.638L563.4 736.866C564.352 737.485 564.829 738.415 564.829 739.655ZM558.198 739.812C558.198 740.322 558.385 740.751 558.758 741.097C559.127 741.443 559.647 741.658 560.317 741.74V738.035H560.221C559.579 738.071 559.082 738.244 558.731 738.554C558.375 738.864 558.198 739.283 558.198 739.812Z" fill="#0000FF"/>
<path d="M564.692 727.801V729.073H556.263L557.2 731.622H556.051L554.691 727.999V727.801H564.692Z" fill="#0000FF"/>
<path d="M560.317 719.249C560.631 719.514 560.884 719.83 561.076 720.2C561.267 720.564 561.363 720.965 561.363 721.403C561.363 721.977 561.222 722.478 560.939 722.907C560.656 723.33 560.26 723.659 559.75 723.891C559.235 724.123 558.667 724.24 558.047 724.24C557.382 724.24 556.783 724.114 556.25 723.864C555.716 723.608 555.308 723.248 555.026 722.784C554.743 722.319 554.602 721.776 554.602 721.157C554.602 720.172 554.971 719.398 555.709 718.832C556.443 718.263 557.446 717.978 558.717 717.978H559.086C561.023 717.978 562.438 718.361 563.332 719.126C564.22 719.892 564.676 721.047 564.699 722.592V722.838H563.632V722.572C563.614 721.528 563.343 720.726 562.819 720.165C562.29 719.605 561.456 719.3 560.317 719.249ZM560.317 721.198C560.317 720.774 560.187 720.384 559.927 720.029C559.667 719.669 559.346 719.407 558.963 719.243H558.458C557.628 719.243 556.954 719.423 556.434 719.783C555.915 720.143 555.655 720.598 555.655 721.15C555.655 721.706 555.869 722.152 556.297 722.49C556.721 722.827 557.282 722.995 557.979 722.995C558.658 722.995 559.219 722.834 559.661 722.51C560.098 722.182 560.317 721.745 560.317 721.198Z" fill="#0000FF"/>
<path d="M358.718 509.465C354.608 509.469 350.668 511.103 347.762 514.009C344.856 516.915 343.222 520.855 343.218 524.965C343.218 536.773 357.129 550.733 357.718 551.32C357.982 551.583 358.339 551.73 358.711 551.73C359.083 551.73 359.44 551.583 359.704 551.32C360.296 550.733 374.204 536.773 374.204 524.965C374.2 520.858 372.568 516.919 369.665 514.014C366.762 511.108 362.825 509.472 358.718 509.465Z" fill="white" stroke="#0000FF" stroke-miterlimit="10"/>
<path d="M1332.88 141.657H1337.6V142.73H1331.57V132.777H1332.88V141.657Z" fill="#0000FF"/>
<path d="M1343.47 142.73C1343.39 142.584 1343.33 142.324 1343.29 141.951C1342.7 142.561 1342 142.867 1341.18 142.867C1340.45 142.867 1339.86 142.662 1339.39 142.251C1338.92 141.837 1338.69 141.313 1338.69 140.679C1338.69 139.909 1338.98 139.312 1339.56 138.888C1340.15 138.46 1340.98 138.246 1342.04 138.246H1343.27V137.665C1343.27 137.222 1343.14 136.872 1342.87 136.612C1342.61 136.347 1342.22 136.215 1341.7 136.215C1341.25 136.215 1340.87 136.329 1340.57 136.557C1340.26 136.785 1340.11 137.061 1340.11 137.384H1338.84C1338.84 137.015 1338.97 136.66 1339.23 136.318C1339.49 135.972 1339.85 135.698 1340.29 135.498C1340.75 135.297 1341.24 135.197 1341.78 135.197C1342.63 135.197 1343.3 135.411 1343.78 135.839C1344.26 136.263 1344.51 136.849 1344.53 137.596V141C1344.53 141.68 1344.62 142.22 1344.79 142.621V142.73H1343.47ZM1341.37 141.766C1341.76 141.766 1342.14 141.664 1342.5 141.458C1342.85 141.253 1343.11 140.987 1343.27 140.659V139.141H1342.28C1340.73 139.141 1339.95 139.595 1339.95 140.501C1339.95 140.898 1340.09 141.208 1340.35 141.431C1340.61 141.654 1340.95 141.766 1341.37 141.766Z" fill="#0000FF"/>
<path d="M1350.82 140.768C1350.82 140.426 1350.69 140.162 1350.43 139.975C1350.18 139.784 1349.73 139.62 1349.09 139.483C1348.45 139.346 1347.94 139.182 1347.56 138.991C1347.19 138.799 1346.91 138.571 1346.73 138.307C1346.55 138.043 1346.46 137.728 1346.46 137.364C1346.46 136.758 1346.72 136.245 1347.23 135.826C1347.74 135.406 1348.4 135.197 1349.2 135.197C1350.03 135.197 1350.71 135.413 1351.23 135.846C1351.76 136.279 1352.02 136.833 1352.02 137.507H1350.75C1350.75 137.161 1350.6 136.862 1350.3 136.612C1350.01 136.361 1349.64 136.236 1349.2 136.236C1348.74 136.236 1348.38 136.336 1348.12 136.537C1347.86 136.737 1347.73 136.999 1347.73 137.323C1347.73 137.628 1347.85 137.858 1348.09 138.013C1348.33 138.168 1348.76 138.316 1349.39 138.458C1350.03 138.599 1350.54 138.767 1350.93 138.963C1351.32 139.159 1351.61 139.396 1351.8 139.674C1351.99 139.948 1352.09 140.283 1352.09 140.679C1352.09 141.34 1351.82 141.871 1351.29 142.272C1350.77 142.668 1350.08 142.867 1349.24 142.867C1348.64 142.867 1348.12 142.762 1347.66 142.552C1347.21 142.343 1346.85 142.051 1346.59 141.677C1346.34 141.299 1346.21 140.891 1346.21 140.454H1347.47C1347.5 140.877 1347.66 141.215 1347.98 141.465C1348.3 141.711 1348.72 141.834 1349.24 141.834C1349.71 141.834 1350.1 141.739 1350.38 141.547C1350.68 141.351 1350.82 141.092 1350.82 140.768Z" fill="#0000FF"/>
<path d="M1364.73 139.572C1364.6 140.625 1364.21 141.438 1363.56 142.012C1362.91 142.582 1362.04 142.867 1360.95 142.867C1359.78 142.867 1358.83 142.445 1358.12 141.602C1357.42 140.759 1357.06 139.631 1357.06 138.218V137.261C1357.06 136.336 1357.23 135.523 1357.56 134.821C1357.89 134.119 1358.36 133.581 1358.96 133.208C1359.57 132.829 1360.27 132.64 1361.07 132.64C1362.13 132.64 1362.97 132.936 1363.61 133.529C1364.25 134.117 1364.62 134.932 1364.73 135.976H1363.41C1363.29 135.183 1363.04 134.609 1362.66 134.253C1362.28 133.898 1361.75 133.72 1361.07 133.72C1360.23 133.72 1359.57 134.03 1359.09 134.65C1358.62 135.27 1358.38 136.152 1358.38 137.295V138.259C1358.38 139.339 1358.61 140.198 1359.06 140.836C1359.51 141.474 1360.14 141.793 1360.95 141.793C1361.68 141.793 1362.24 141.629 1362.63 141.301C1363.02 140.969 1363.28 140.392 1363.41 139.572H1364.73Z" fill="#0000FF"/>
<path d="M1369.9 136.468C1369.71 136.436 1369.5 136.42 1369.28 136.42C1368.45 136.42 1367.89 136.774 1367.59 137.48V142.73H1366.33V135.333H1367.56L1367.58 136.188C1367.99 135.527 1368.58 135.197 1369.34 135.197C1369.59 135.197 1369.77 135.229 1369.9 135.292V136.468Z" fill="#0000FF"/>
<path d="M1375.64 141.999C1375.14 142.577 1374.42 142.867 1373.47 142.867C1372.68 142.867 1372.08 142.639 1371.67 142.183C1371.25 141.723 1371.05 141.044 1371.04 140.146V135.333H1372.31V140.112C1372.31 141.233 1372.76 141.793 1373.67 141.793C1374.64 141.793 1375.28 141.433 1375.6 140.713V135.333H1376.87V142.73H1375.66L1375.64 141.999Z" fill="#0000FF"/>
<path d="M1381.76 141.834C1382.21 141.834 1382.61 141.698 1382.94 141.424C1383.28 141.151 1383.47 140.809 1383.5 140.399H1384.7C1384.68 140.823 1384.53 141.226 1384.26 141.609C1383.99 141.992 1383.63 142.297 1383.18 142.525C1382.74 142.753 1382.26 142.867 1381.76 142.867C1380.75 142.867 1379.95 142.532 1379.36 141.862C1378.76 141.187 1378.47 140.267 1378.47 139.1V138.888C1378.47 138.168 1378.6 137.528 1378.86 136.967C1379.13 136.407 1379.51 135.972 1380 135.662C1380.49 135.352 1381.08 135.197 1381.75 135.197C1382.58 135.197 1383.27 135.445 1383.82 135.942C1384.37 136.439 1384.66 137.083 1384.7 137.876H1383.5C1383.47 137.398 1383.29 137.006 1382.96 136.701C1382.63 136.391 1382.23 136.236 1381.75 136.236C1381.11 136.236 1380.61 136.468 1380.26 136.933C1379.91 137.393 1379.73 138.061 1379.73 138.936V139.175C1379.73 140.028 1379.91 140.684 1380.26 141.144C1380.61 141.604 1381.11 141.834 1381.76 141.834Z" fill="#0000FF"/>
<path d="M1389.19 142.867C1388.19 142.867 1387.37 142.539 1386.75 141.882C1386.12 141.222 1385.8 140.34 1385.8 139.237V139.004C1385.8 138.271 1385.94 137.617 1386.22 137.042C1386.5 136.464 1386.89 136.013 1387.39 135.689C1387.9 135.361 1388.45 135.197 1389.04 135.197C1390 135.197 1390.74 135.514 1391.28 136.147C1391.81 136.78 1392.08 137.687 1392.08 138.868V139.394H1387.07C1387.08 140.123 1387.3 140.713 1387.7 141.165C1388.11 141.611 1388.63 141.834 1389.26 141.834C1389.71 141.834 1390.09 141.743 1390.4 141.561C1390.71 141.379 1390.98 141.137 1391.21 140.836L1391.98 141.438C1391.36 142.39 1390.43 142.867 1389.19 142.867ZM1389.04 136.236C1388.52 136.236 1388.1 136.423 1387.75 136.796C1387.4 137.166 1387.19 137.685 1387.11 138.355H1390.81V138.259C1390.78 137.617 1390.6 137.12 1390.29 136.769C1389.98 136.414 1389.56 136.236 1389.04 136.236Z" fill="#0000FF"/>
<path d="M1397.85 140.768C1397.85 140.426 1397.72 140.162 1397.46 139.975C1397.21 139.784 1396.76 139.62 1396.12 139.483C1395.48 139.346 1394.97 139.182 1394.59 138.991C1394.22 138.799 1393.94 138.571 1393.76 138.307C1393.58 138.043 1393.49 137.728 1393.49 137.364C1393.49 136.758 1393.75 136.245 1394.26 135.826C1394.77 135.406 1395.43 135.197 1396.23 135.197C1397.07 135.197 1397.74 135.413 1398.26 135.846C1398.79 136.279 1399.05 136.833 1399.05 137.507H1397.78C1397.78 137.161 1397.63 136.862 1397.33 136.612C1397.04 136.361 1396.67 136.236 1396.23 136.236C1395.77 136.236 1395.41 136.336 1395.15 136.537C1394.89 136.737 1394.76 136.999 1394.76 137.323C1394.76 137.628 1394.88 137.858 1395.12 138.013C1395.36 138.168 1395.8 138.316 1396.42 138.458C1397.06 138.599 1397.57 138.767 1397.96 138.963C1398.35 139.159 1398.64 139.396 1398.83 139.674C1399.02 139.948 1399.12 140.283 1399.12 140.679C1399.12 141.34 1398.85 141.871 1398.33 142.272C1397.8 142.668 1397.11 142.867 1396.27 142.867C1395.68 142.867 1395.15 142.762 1394.7 142.552C1394.24 142.343 1393.88 142.051 1393.62 141.677C1393.37 141.299 1393.24 140.891 1393.24 140.454H1394.5C1394.53 140.877 1394.7 141.215 1395.01 141.465C1395.33 141.711 1395.75 141.834 1396.27 141.834C1396.75 141.834 1397.13 141.739 1397.42 141.547C1397.71 141.351 1397.85 141.092 1397.85 140.768Z" fill="#0000FF"/>
<path d="M1368.44 77.776C1364.33 77.7797 1360.39 79.4139 1357.48 82.3199C1354.57 85.2259 1352.94 89.1663 1352.94 93.276C1352.94 105.084 1366.85 119.044 1367.44 119.632C1367.7 119.895 1368.06 120.042 1368.43 120.042C1368.8 120.042 1369.16 119.895 1369.42 119.632C1370.01 119.044 1383.92 105.084 1383.92 93.276C1383.92 89.1687 1382.29 85.2305 1379.38 82.3249C1376.48 79.4193 1372.54 77.7834 1368.44 77.776Z" fill="white" stroke="#0000FF" stroke-miterlimit="10"/>
<path d="M756.86 779.445H761.576V780.518H755.54V770.565H756.86V779.445Z" fill="#0000FF"/>
<path d="M767.442 780.518C767.369 780.372 767.309 780.112 767.264 779.739C766.676 780.349 765.974 780.655 765.158 780.655C764.429 780.655 763.83 780.45 763.361 780.039C762.896 779.625 762.663 779.101 762.663 778.467C762.663 777.697 762.955 777.1 763.538 776.676C764.126 776.248 764.951 776.034 766.013 776.034H767.243V775.453C767.243 775.011 767.111 774.66 766.847 774.4C766.583 774.136 766.193 774.003 765.678 774.003C765.227 774.003 764.849 774.117 764.543 774.345C764.238 774.573 764.085 774.849 764.085 775.172H762.814C762.814 774.803 762.944 774.448 763.203 774.106C763.468 773.76 763.823 773.486 764.27 773.286C764.721 773.085 765.215 772.985 765.753 772.985C766.605 772.985 767.273 773.199 767.756 773.627C768.239 774.051 768.49 774.637 768.508 775.384V778.789C768.508 779.468 768.595 780.008 768.768 780.409V780.518H767.442ZM765.343 779.554C765.74 779.554 766.115 779.452 766.471 779.247C766.826 779.041 767.084 778.775 767.243 778.447V776.929H766.252C764.703 776.929 763.928 777.383 763.928 778.289C763.928 778.686 764.06 778.996 764.324 779.219C764.589 779.442 764.928 779.554 765.343 779.554Z" fill="#0000FF"/>
<path d="M774.797 778.556C774.797 778.214 774.667 777.95 774.407 777.763C774.152 777.572 773.703 777.408 773.061 777.271C772.423 777.134 771.915 776.97 771.536 776.779C771.163 776.587 770.885 776.359 770.702 776.095C770.525 775.831 770.436 775.516 770.436 775.152C770.436 774.546 770.691 774.033 771.201 773.614C771.716 773.194 772.373 772.985 773.17 772.985C774.009 772.985 774.688 773.201 775.207 773.634C775.731 774.067 775.993 774.621 775.993 775.295H774.722C774.722 774.949 774.574 774.65 774.278 774.4C773.986 774.149 773.617 774.024 773.17 774.024C772.71 774.024 772.35 774.124 772.09 774.325C771.83 774.525 771.7 774.787 771.7 775.111C771.7 775.416 771.821 775.646 772.063 775.801C772.304 775.956 772.74 776.104 773.368 776.246C774.002 776.387 774.515 776.555 774.906 776.751C775.298 776.947 775.588 777.184 775.775 777.462C775.966 777.736 776.062 778.071 776.062 778.467C776.062 779.128 775.797 779.659 775.269 780.06C774.74 780.456 774.054 780.655 773.211 780.655C772.619 780.655 772.095 780.55 771.639 780.34C771.183 780.131 770.825 779.839 770.566 779.465C770.31 779.087 770.183 778.679 770.183 778.242H771.448C771.47 778.665 771.639 779.003 771.953 779.253C772.272 779.499 772.692 779.622 773.211 779.622C773.69 779.622 774.073 779.527 774.36 779.335C774.651 779.139 774.797 778.88 774.797 778.556Z" fill="#0000FF"/>
<path d="M786.876 777.92H782.706L781.77 780.518H780.416L784.217 770.565H785.365L789.173 780.518H787.826L786.876 777.92ZM783.103 776.84H786.487L784.791 772.185L783.103 776.84Z" fill="#0000FF"/>
<path d="M790.014 776.758C790.014 775.605 790.281 774.689 790.814 774.01C791.347 773.327 792.053 772.985 792.933 772.985C793.835 772.985 794.539 773.304 795.045 773.942L795.107 773.122H796.262V780.34C796.262 781.297 795.977 782.052 795.407 782.603C794.842 783.154 794.081 783.43 793.124 783.43C792.591 783.43 792.069 783.316 791.559 783.088C791.048 782.86 790.659 782.548 790.39 782.152L791.046 781.393C791.588 782.063 792.252 782.398 793.035 782.398C793.651 782.398 794.129 782.225 794.471 781.878C794.817 781.532 794.99 781.044 794.99 780.415V779.78C794.485 780.363 793.794 780.655 792.919 780.655C792.053 780.655 791.351 780.306 790.814 779.609C790.281 778.912 790.014 777.961 790.014 776.758ZM791.285 776.902C791.285 777.736 791.456 778.392 791.798 778.871C792.14 779.345 792.618 779.581 793.234 779.581C794.031 779.581 794.617 779.219 794.99 778.495V775.118C794.603 774.411 794.022 774.058 793.247 774.058C792.632 774.058 792.151 774.297 791.805 774.776C791.459 775.254 791.285 775.963 791.285 776.902Z" fill="#0000FF"/>
<path d="M802.742 779.787C802.25 780.365 801.528 780.655 800.575 780.655C799.787 780.655 799.185 780.427 798.771 779.971C798.361 779.511 798.153 778.832 798.149 777.934V773.122H799.413V777.9C799.413 779.021 799.869 779.581 800.781 779.581C801.747 779.581 802.389 779.221 802.708 778.501V773.122H803.973V780.518H802.77L802.742 779.787Z" fill="#0000FF"/>
<path d="M810.467 780.518C810.394 780.372 810.335 780.112 810.289 779.739C809.701 780.349 809 780.655 808.184 780.655C807.455 780.655 806.855 780.45 806.386 780.039C805.921 779.625 805.689 779.101 805.689 778.467C805.689 777.697 805.98 777.1 806.564 776.676C807.152 776.248 807.976 776.034 809.038 776.034H810.269V775.453C810.269 775.011 810.137 774.66 809.872 774.4C809.608 774.136 809.218 774.003 808.703 774.003C808.252 774.003 807.874 774.117 807.569 774.345C807.263 774.573 807.111 774.849 807.111 775.172H805.839C805.839 774.803 805.969 774.448 806.229 774.106C806.493 773.76 806.849 773.486 807.295 773.286C807.746 773.085 808.241 772.985 808.779 772.985C809.631 772.985 810.298 773.199 810.781 773.627C811.265 774.051 811.515 774.637 811.533 775.384V778.789C811.533 779.468 811.62 780.008 811.793 780.409V780.518H810.467ZM808.368 779.554C808.765 779.554 809.141 779.452 809.496 779.247C809.852 779.041 810.109 778.775 810.269 778.447V776.929H809.278C807.728 776.929 806.953 777.383 806.953 778.289C806.953 778.686 807.086 778.996 807.35 779.219C807.614 779.442 807.954 779.554 808.368 779.554Z" fill="#0000FF"/>
<path d="M817.823 778.556C817.823 778.214 817.693 777.95 817.433 777.763C817.178 777.572 816.729 777.408 816.086 777.271C815.448 777.134 814.94 776.97 814.562 776.779C814.188 776.587 813.91 776.359 813.728 776.095C813.55 775.831 813.461 775.516 813.461 775.152C813.461 774.546 813.716 774.033 814.227 773.614C814.742 773.194 815.398 772.985 816.196 772.985C817.034 772.985 817.713 773.201 818.233 773.634C818.757 774.067 819.019 774.621 819.019 775.295H817.747C817.747 774.949 817.599 774.65 817.303 774.4C817.011 774.149 816.642 774.024 816.196 774.024C815.735 774.024 815.375 774.124 815.115 774.325C814.856 774.525 814.726 774.787 814.726 775.111C814.726 775.416 814.847 775.646 815.088 775.801C815.33 775.956 815.765 776.104 816.394 776.246C817.027 776.387 817.54 776.555 817.932 776.751C818.324 776.947 818.613 777.184 818.8 777.462C818.991 777.736 819.087 778.071 819.087 778.467C819.087 779.128 818.823 779.659 818.294 780.06C817.766 780.456 817.08 780.655 816.237 780.655C815.644 780.655 815.12 780.55 814.664 780.34C814.209 780.131 813.851 779.839 813.591 779.465C813.336 779.087 813.208 778.679 813.208 778.242H814.473C814.496 778.665 814.664 779.003 814.979 779.253C815.298 779.499 815.717 779.622 816.237 779.622C816.715 779.622 817.098 779.527 817.385 779.335C817.677 779.139 817.823 778.88 817.823 778.556Z" fill="#0000FF"/>
<path d="M789.7 715.564C785.59 715.568 781.65 717.202 778.744 720.108C775.838 723.014 774.204 726.954 774.2 731.064C774.2 742.871 788.111 756.832 788.7 757.419C788.964 757.682 789.321 757.829 789.693 757.829C790.065 757.829 790.422 757.682 790.686 757.419C791.278 756.832 805.186 742.871 805.186 731.064C805.182 726.957 803.55 723.018 800.647 720.113C797.744 717.207 793.807 715.571 789.7 715.564Z" fill="white" stroke="#0000FF" stroke-miterlimit="10"/>
<path d="M1193.66 850.21C1193.53 851.263 1193.14 852.076 1192.49 852.65C1191.84 853.22 1190.97 853.505 1189.88 853.505C1188.71 853.505 1187.76 853.083 1187.05 852.24C1186.35 851.397 1185.99 850.269 1185.99 848.856V847.899C1185.99 846.974 1186.16 846.161 1186.49 845.459C1186.82 844.757 1187.29 844.219 1187.89 843.846C1188.5 843.467 1189.2 843.278 1190 843.278C1191.06 843.278 1191.9 843.574 1192.54 844.167C1193.18 844.755 1193.55 845.57 1193.66 846.614H1192.34C1192.22 845.821 1191.98 845.247 1191.59 844.891C1191.21 844.536 1190.68 844.358 1190 844.358C1189.16 844.358 1188.5 844.668 1188.02 845.288C1187.55 845.908 1187.31 846.79 1187.31 847.933V848.897C1187.31 849.977 1187.54 850.836 1187.99 851.474C1188.44 852.112 1189.07 852.431 1189.88 852.431C1190.61 852.431 1191.17 852.267 1191.56 851.939C1191.95 851.607 1192.21 851.03 1192.34 850.21H1193.66Z" fill="#0000FF"/>
<path d="M1199.82 853.368C1199.75 853.222 1199.69 852.962 1199.65 852.589C1199.06 853.199 1198.36 853.505 1197.54 853.505C1196.81 853.505 1196.21 853.3 1195.74 852.889C1195.28 852.475 1195.04 851.951 1195.04 851.317C1195.04 850.547 1195.34 849.95 1195.92 849.526C1196.51 849.098 1197.33 848.884 1198.39 848.884H1199.62V848.303C1199.62 847.86 1199.49 847.51 1199.23 847.25C1198.96 846.985 1198.57 846.853 1198.06 846.853C1197.61 846.853 1197.23 846.967 1196.92 847.195C1196.62 847.423 1196.47 847.699 1196.47 848.022H1195.19C1195.19 847.653 1195.32 847.298 1195.58 846.956C1195.85 846.61 1196.2 846.336 1196.65 846.136C1197.1 845.935 1197.6 845.835 1198.13 845.835C1198.99 845.835 1199.65 846.049 1200.14 846.477C1200.62 846.901 1200.87 847.487 1200.89 848.234V851.638C1200.89 852.318 1200.98 852.858 1201.15 853.259V853.368H1199.82ZM1197.72 852.404C1198.12 852.404 1198.5 852.302 1198.85 852.096C1199.21 851.891 1199.47 851.625 1199.62 851.297V849.779H1198.63C1197.08 849.779 1196.31 850.233 1196.31 851.139C1196.31 851.536 1196.44 851.846 1196.71 852.069C1196.97 852.292 1197.31 852.404 1197.72 852.404Z" fill="#0000FF"/>
<path d="M1204.07 845.971L1204.11 846.901C1204.67 846.19 1205.41 845.835 1206.32 845.835C1207.89 845.835 1208.68 846.717 1208.69 848.48V853.368H1207.42V848.473C1207.42 847.94 1207.3 847.546 1207.06 847.291C1206.82 847.036 1206.45 846.908 1205.94 846.908C1205.53 846.908 1205.17 847.017 1204.86 847.236C1204.55 847.455 1204.31 847.742 1204.14 848.097V853.368H1202.87V845.971H1204.07Z" fill="#0000FF"/>
<path d="M1210.29 849.608C1210.29 848.473 1210.56 847.562 1211.1 846.874C1211.63 846.181 1212.34 845.835 1213.21 845.835C1214.07 845.835 1214.76 846.131 1215.27 846.723V842.868H1216.53V853.368H1215.37L1215.31 852.575C1214.8 853.195 1214.1 853.505 1213.19 853.505C1212.34 853.505 1211.64 853.154 1211.1 852.452C1210.56 851.75 1210.29 850.834 1210.29 849.704V849.608ZM1211.55 849.752C1211.55 850.59 1211.73 851.247 1212.07 851.721C1212.42 852.194 1212.9 852.431 1213.51 852.431C1214.31 852.431 1214.9 852.071 1215.27 851.351V847.954C1214.89 847.257 1214.31 846.908 1213.52 846.908C1212.9 846.908 1212.42 847.147 1212.07 847.626C1211.73 848.104 1211.55 848.813 1211.55 849.752Z" fill="#0000FF"/>
<path d="M1221.57 853.505C1220.57 853.505 1219.75 853.177 1219.12 852.52C1218.49 851.86 1218.18 850.978 1218.18 849.875V849.642C1218.18 848.909 1218.32 848.255 1218.59 847.68C1218.88 847.102 1219.27 846.651 1219.77 846.327C1220.28 845.999 1220.82 845.835 1221.41 845.835C1222.37 845.835 1223.12 846.152 1223.65 846.785C1224.19 847.418 1224.45 848.325 1224.45 849.506V850.032H1219.44C1219.46 850.761 1219.67 851.351 1220.08 851.803C1220.49 852.249 1221.01 852.472 1221.64 852.472C1222.08 852.472 1222.46 852.381 1222.77 852.199C1223.08 852.017 1223.35 851.775 1223.58 851.474L1224.36 852.076C1223.74 853.028 1222.81 853.505 1221.57 853.505ZM1221.41 846.874C1220.9 846.874 1220.47 847.061 1220.13 847.434C1219.78 847.804 1219.56 848.323 1219.48 848.993H1223.19V848.897C1223.15 848.255 1222.98 847.758 1222.67 847.407C1222.36 847.052 1221.94 846.874 1221.41 846.874Z" fill="#0000FF"/>
<path d="M1227.3 853.368H1226.03V842.868H1227.3V853.368Z" fill="#0000FF"/>
<path d="M1233.89 853.368C1233.82 853.222 1233.76 852.962 1233.72 852.589C1233.13 853.199 1232.43 853.505 1231.61 853.505C1230.88 853.505 1230.28 853.3 1229.81 852.889C1229.35 852.475 1229.11 851.951 1229.11 851.317C1229.11 850.547 1229.41 849.95 1229.99 849.526C1230.58 849.098 1231.4 848.884 1232.46 848.884H1233.69V848.303C1233.69 847.86 1233.56 847.51 1233.3 847.25C1233.03 846.985 1232.64 846.853 1232.13 846.853C1231.68 846.853 1231.3 846.967 1230.99 847.195C1230.69 847.423 1230.54 847.699 1230.54 848.022H1229.27C1229.27 847.653 1229.4 847.298 1229.65 846.956C1229.92 846.61 1230.27 846.336 1230.72 846.136C1231.17 845.935 1231.67 845.835 1232.2 845.835C1233.06 845.835 1233.72 846.049 1234.21 846.477C1234.69 846.901 1234.94 847.487 1234.96 848.234V851.638C1234.96 852.318 1235.05 852.858 1235.22 853.259V853.368H1233.89ZM1231.79 852.404C1232.19 852.404 1232.57 852.302 1232.92 852.096C1233.28 851.891 1233.54 851.625 1233.69 851.297V849.779H1232.7C1231.15 849.779 1230.38 850.233 1230.38 851.139C1230.38 851.536 1230.51 851.846 1230.78 852.069C1231.04 852.292 1231.38 852.404 1231.79 852.404Z" fill="#0000FF"/>
<path d="M1240.52 847.106C1240.33 847.074 1240.12 847.058 1239.9 847.058C1239.07 847.058 1238.5 847.412 1238.21 848.118V853.368H1236.94V845.971H1238.17L1238.19 846.826C1238.61 846.165 1239.2 845.835 1239.96 845.835C1240.2 845.835 1240.39 845.867 1240.52 845.93V847.106Z" fill="#0000FF"/>
<path d="M1243.06 853.368H1241.8V845.971H1243.06V853.368ZM1241.69 844.01C1241.69 843.805 1241.75 843.631 1241.88 843.49C1242.01 843.349 1242.19 843.278 1242.44 843.278C1242.68 843.278 1242.87 843.349 1243 843.49C1243.13 843.631 1243.19 843.805 1243.19 844.01C1243.19 844.215 1243.13 844.386 1243 844.522C1242.87 844.659 1242.68 844.727 1242.44 844.727C1242.19 844.727 1242.01 844.659 1241.88 844.522C1241.75 844.386 1241.69 844.215 1241.69 844.01Z" fill="#0000FF"/>
<path d="M1249.66 853.368C1249.58 853.222 1249.52 852.962 1249.48 852.589C1248.89 853.199 1248.19 853.505 1247.37 853.505C1246.64 853.505 1246.05 853.3 1245.58 852.889C1245.11 852.475 1244.88 851.951 1244.88 851.317C1244.88 850.547 1245.17 849.95 1245.75 849.526C1246.34 849.098 1247.17 848.884 1248.23 848.884H1249.46V848.303C1249.46 847.86 1249.33 847.51 1249.06 847.25C1248.8 846.985 1248.41 846.853 1247.89 846.853C1247.44 846.853 1247.06 846.967 1246.76 847.195C1246.45 847.423 1246.3 847.699 1246.3 848.022H1245.03C1245.03 847.653 1245.16 847.298 1245.42 846.956C1245.68 846.61 1246.04 846.336 1246.48 846.136C1246.94 845.935 1247.43 845.835 1247.97 845.835C1248.82 845.835 1249.49 846.049 1249.97 846.477C1250.45 846.901 1250.7 847.487 1250.72 848.234V851.638C1250.72 852.318 1250.81 852.858 1250.98 853.259V853.368H1249.66ZM1247.56 852.404C1247.95 852.404 1248.33 852.302 1248.69 852.096C1249.04 851.891 1249.3 851.625 1249.46 851.297V849.779H1248.47C1246.92 849.779 1246.14 850.233 1246.14 851.139C1246.14 851.536 1246.28 851.846 1246.54 852.069C1246.8 852.292 1247.14 852.404 1247.56 852.404Z" fill="#0000FF"/>
<path d="M1221.66 788.414C1217.55 788.418 1213.61 790.052 1210.7 792.958C1207.8 795.864 1206.16 799.804 1206.16 803.914C1206.16 815.722 1220.07 829.682 1220.66 830.269C1220.92 830.531 1221.28 830.679 1221.65 830.679C1222.02 830.679 1222.38 830.531 1222.64 830.269C1223.24 829.682 1237.14 815.722 1237.14 803.914C1237.14 799.807 1235.51 795.869 1232.6 792.963C1229.7 790.057 1225.77 788.421 1221.66 788.414Z" fill="white" stroke="#0000FF" stroke-miterlimit="10"/>
<path d="M774.407 16.0985C773.281 15.7749 772.461 15.3784 771.946 14.909C771.435 14.4351 771.18 13.8517 771.18 13.159C771.18 12.3752 771.492 11.728 772.117 11.2176C772.746 10.7026 773.561 10.4452 774.564 10.4452C775.248 10.4452 775.856 10.5773 776.389 10.8416C776.927 11.106 777.342 11.4706 777.633 11.9354C777.93 12.4002 778.078 12.9084 778.078 13.4598H776.758C776.758 12.8582 776.567 12.3866 776.184 12.0448C775.801 11.6984 775.261 11.5252 774.564 11.5252C773.917 11.5252 773.411 11.6688 773.046 11.9559C772.686 12.2385 772.506 12.6327 772.506 13.1385C772.506 13.5441 772.677 13.8882 773.019 14.1707C773.365 14.4487 773.951 14.7039 774.776 14.9364C775.605 15.1688 776.252 15.4263 776.717 15.7088C777.187 15.9868 777.533 16.3127 777.756 16.6864C777.984 17.0601 778.098 17.4998 778.098 18.0057C778.098 18.8123 777.784 19.4595 777.155 19.9471C776.526 20.4302 775.685 20.6717 774.632 20.6717C773.949 20.6717 773.311 20.5418 772.718 20.2821C772.126 20.0178 771.668 19.6577 771.344 19.202C771.025 18.7463 770.866 18.229 770.866 17.6502H772.185C772.185 18.2518 772.406 18.728 772.848 19.0789C773.295 19.4253 773.889 19.5985 774.632 19.5985C775.325 19.5985 775.856 19.4572 776.225 19.1747C776.594 18.8921 776.779 18.507 776.779 18.0194C776.779 17.5317 776.608 17.1558 776.266 16.8914C775.924 16.6226 775.305 16.3582 774.407 16.0985Z" fill="#0000FF"/>
<path d="M786.793 10.5819V17.3495C786.789 18.2883 786.493 19.0562 785.905 19.6532C785.321 20.2502 784.528 20.5851 783.526 20.6581L783.177 20.6717C782.088 20.6717 781.22 20.3778 780.573 19.7899C779.926 19.202 779.597 18.3931 779.588 17.3631V10.5819H780.887V17.3221C780.887 18.0422 781.085 18.6027 781.482 19.0038C781.878 19.4002 782.444 19.5985 783.177 19.5985C783.92 19.5985 784.487 19.4002 784.879 19.0038C785.276 18.6073 785.474 18.049 785.474 17.3289V10.5819H786.793Z" fill="#0000FF"/>
<path d="M792.515 16.5086H790.177V20.535H788.858V10.5819H792.153C793.274 10.5819 794.135 10.8371 794.737 11.3475C795.343 11.8579 795.646 12.6008 795.646 13.576C795.646 14.1958 795.477 14.7359 795.14 15.1961C794.807 15.6564 794.343 16.0005 793.746 16.2284L796.083 20.453V20.535H794.675L792.515 16.5086ZM790.177 15.4354H792.194C792.846 15.4354 793.363 15.2668 793.746 14.9295C794.133 14.5923 794.327 14.1411 794.327 13.576C794.327 12.9608 794.142 12.4891 793.773 12.161C793.408 11.8329 792.88 11.6665 792.187 11.662H790.177V15.4354Z" fill="#0000FF"/>
<path d="M917.437 885.067H916.117L911.107 877.397V885.067H909.787V875.114H911.107L916.131 882.818V875.114H917.437V885.067Z" fill="#0000FF"/>
<path d="M927.424 880.412C927.424 881.387 927.26 882.239 926.932 882.968C926.604 883.693 926.139 884.247 925.537 884.63C924.936 885.012 924.234 885.204 923.432 885.204C922.648 885.204 921.953 885.012 921.347 884.63C920.741 884.242 920.269 883.693 919.932 882.982C919.599 882.267 919.428 881.439 919.419 880.501V879.783C919.419 878.826 919.586 877.98 919.918 877.247C920.251 876.513 920.72 875.952 921.326 875.565C921.937 875.173 922.634 874.977 923.418 874.977C924.216 874.977 924.918 875.171 925.524 875.558C926.134 875.941 926.604 876.499 926.932 877.233C927.26 877.962 927.424 878.812 927.424 879.783V880.412ZM926.118 879.769C926.118 878.589 925.881 877.684 925.407 877.055C924.934 876.422 924.27 876.105 923.418 876.105C922.589 876.105 921.935 876.422 921.456 877.055C920.982 877.684 920.739 878.559 920.725 879.68V880.412C920.725 881.556 920.964 882.456 921.443 883.112C921.926 883.764 922.589 884.089 923.432 884.089C924.28 884.089 924.936 883.782 925.401 883.167C925.865 882.547 926.105 881.66 926.118 880.507V879.769Z" fill="#0000FF"/>
<path d="M933.043 881.041H930.705V885.067H929.386V875.114H932.681C933.802 875.114 934.663 875.369 935.265 875.88C935.871 876.39 936.174 877.133 936.174 878.108C936.174 878.728 936.005 879.268 935.668 879.728C935.336 880.188 934.871 880.533 934.274 880.76L936.612 884.985V885.067H935.203L933.043 881.041ZM930.705 879.967H932.722C933.374 879.967 933.891 879.799 934.274 879.462C934.661 879.124 934.855 878.673 934.855 878.108C934.855 877.493 934.67 877.021 934.301 876.693C933.936 876.365 933.408 876.199 932.715 876.194H930.705V879.967Z" fill="#0000FF"/>
<path d="M944.35 876.194H941.151V885.067H939.845V876.194H936.653V875.114H944.35V876.194Z" fill="#0000FF"/>
<path d="M951.452 880.466H947.139V883.994H952.15V885.067H945.826V875.114H952.081V876.194H947.139V879.393H951.452V880.466Z" fill="#0000FF"/>
<path d="M1398.22 438.714H1393.9V442.242H1398.91V443.315H1392.59V433.362H1398.85V434.442H1393.9V437.641H1398.22V438.714Z" fill="#0000FF"/>
<path d="M1403.48 438.878C1402.35 438.555 1401.53 438.158 1401.02 437.689C1400.51 437.215 1400.25 436.632 1400.25 435.939C1400.25 435.155 1400.57 434.508 1401.19 433.998C1401.82 433.483 1402.63 433.225 1403.64 433.225C1404.32 433.225 1404.93 433.357 1405.46 433.622C1406 433.886 1406.41 434.251 1406.71 434.715C1407 435.18 1407.15 435.688 1407.15 436.24H1405.83C1405.83 435.638 1405.64 435.167 1405.26 434.825C1404.87 434.478 1404.33 434.305 1403.64 434.305C1402.99 434.305 1402.48 434.449 1402.12 434.736C1401.76 435.018 1401.58 435.413 1401.58 435.919C1401.58 436.324 1401.75 436.668 1402.09 436.951C1402.44 437.229 1403.02 437.484 1403.85 437.716C1404.68 437.949 1405.33 438.206 1405.79 438.489C1406.26 438.767 1406.61 439.093 1406.83 439.466C1407.06 439.84 1407.17 440.28 1407.17 440.786C1407.17 441.592 1406.86 442.239 1406.23 442.727C1405.6 443.21 1404.76 443.452 1403.71 443.452C1403.02 443.452 1402.38 443.322 1401.79 443.062C1401.2 442.798 1400.74 442.438 1400.42 441.982C1400.1 441.526 1399.94 441.009 1399.94 440.43H1401.26C1401.26 441.032 1401.48 441.508 1401.92 441.859C1402.37 442.205 1402.96 442.378 1403.71 442.378C1404.4 442.378 1404.93 442.237 1405.3 441.955C1405.67 441.672 1405.85 441.287 1405.85 440.799C1405.85 440.312 1405.68 439.936 1405.34 439.671C1405 439.403 1404.38 439.138 1403.48 438.878Z" fill="#0000FF"/>
<path d="M1415.74 434.442H1412.54V443.315H1411.23V434.442H1408.04V433.362H1415.74V434.442Z" fill="#0000FF"/>
<path d="M1422.84 438.714H1418.53V442.242H1423.54V443.315H1417.21V433.362H1423.47V434.442H1418.53V437.641H1422.84V438.714Z" fill="#0000FF"/>
<path d="M24.0825 312.644C24.0825 313.619 23.9185 314.471 23.5903 315.2C23.2622 315.925 22.7974 316.479 22.1958 316.862C21.5942 317.244 20.8924 317.436 20.0903 317.436C19.3065 317.436 18.6115 317.244 18.0054 316.862C17.3993 316.474 16.9276 315.925 16.5903 315.214C16.2576 314.499 16.0868 313.671 16.0776 312.733V312.015C16.0776 311.058 16.244 310.212 16.5767 309.479C16.9093 308.745 17.3787 308.184 17.9849 307.797C18.5955 307.405 19.2928 307.209 20.0767 307.209C20.8742 307.209 21.576 307.403 22.1821 307.79C22.7928 308.173 23.2622 308.731 23.5903 309.465C23.9185 310.194 24.0825 311.044 24.0825 312.015V312.644ZM22.7769 312.001C22.7769 310.821 22.5399 309.916 22.0659 309.287C21.592 308.654 20.9289 308.337 20.0767 308.337C19.2472 308.337 18.5933 308.654 18.1147 309.287C17.6408 309.916 17.397 310.791 17.3833 311.912V312.644C17.3833 313.788 17.6226 314.688 18.1011 315.344C18.5841 315.996 19.2472 316.321 20.0903 316.321C20.938 316.321 21.5942 316.014 22.0591 315.399C22.5239 314.779 22.7632 313.892 22.7769 312.739V312.001Z" fill="#0000FF"/>
<path d="M31.6772 312.698H27.3638V316.226H32.3745V317.299H26.0513V307.346H32.3062V308.426H27.3638V311.625H31.6772V312.698Z" fill="#0000FF"/>
<path d="M36.9409 312.862C35.8153 312.539 34.995 312.142 34.48 311.673C33.9696 311.199 33.7144 310.616 33.7144 309.923C33.7144 309.139 34.0265 308.492 34.6509 307.982C35.2798 307.467 36.0955 307.209 37.0981 307.209C37.7817 307.209 38.3901 307.341 38.9233 307.606C39.4611 307.87 39.8758 308.235 40.1675 308.699C40.4637 309.164 40.6118 309.672 40.6118 310.224H39.2925C39.2925 309.622 39.1011 309.151 38.7183 308.809C38.3354 308.462 37.7954 308.289 37.0981 308.289C36.451 308.289 35.9451 308.433 35.5806 308.72C35.2205 309.002 35.0405 309.397 35.0405 309.903C35.0405 310.308 35.2114 310.652 35.5532 310.935C35.8996 311.213 36.4852 311.468 37.3101 311.7C38.1395 311.933 38.7866 312.19 39.2515 312.473C39.7209 312.751 40.0672 313.077 40.2905 313.45C40.5184 313.824 40.6323 314.264 40.6323 314.77C40.6323 315.576 40.3179 316.223 39.689 316.711C39.0601 317.194 38.2192 317.436 37.1665 317.436C36.4829 317.436 35.8449 317.306 35.2524 317.046C34.66 316.782 34.202 316.422 33.8784 315.966C33.5594 315.51 33.3999 314.993 33.3999 314.414H34.7192C34.7192 315.016 34.9403 315.492 35.3823 315.843C35.8289 316.189 36.4237 316.362 37.1665 316.362C37.8592 316.362 38.3901 316.221 38.7593 315.939C39.1284 315.656 39.313 315.271 39.313 314.783C39.313 314.296 39.1421 313.92 38.8003 313.655C38.4585 313.387 37.8387 313.122 36.9409 312.862Z" fill="#0000FF"/>
<path d="M49.1978 308.426H45.9985V317.299H44.6929V308.426H41.5005V307.346H49.1978V308.426Z" fill="#0000FF"/>
<path d="M56.3003 312.698H51.9868V316.226H56.9976V317.299H50.6743V307.346H56.9292V308.426H51.9868V311.625H56.3003V312.698Z" fill="#0000FF"/>
<path d="M1007.08 828.88V807.647M1007.08 807.647V786.414M1007.08 807.647H1028.32M1007.08 807.647H985.851" stroke="#0000FF" stroke-width="3" stroke-miterlimit="10" stroke-linecap="round"/>
<path d="M862.601 107.585V65.119M883.834 86.353H841.368" stroke="#0000FF" stroke-width="3" stroke-miterlimit="10" stroke-linecap="round"/>
</svg>
